Coordinates
version=1
nRows=21
nColumns=28
inDegrees=yes

Units are S.I. units (second, meters, Newtons, ...)
Angles are in degrees.

endheader
time	pelvis_tilt	pelvis_list	pelvis_rotation	pelvis_tx	pelvis_ty	pelvis_tz	hip_flexion_r	hip_adduction_r	hip_rotation_r	knee_angle_r	ankle_angle_r	subtalar_angle_r	mtp_angle_r	hip_flexion_l	hip_adduction_l	hip_rotation_l	knee_angle_l	socket_flexion	socket_adduction	socket_rotation	socket_tx	socket_ty	socket_tz	foot_flex	lumbar_extension	lumbar_bending	lumbar_rotation
      0.31666667	      0.89113467	     -1.30098478	     -4.21302963	     -0.45412450	      1.02892803	      0.29619226	     15.12802272	      1.69236533	     -1.40727377	    -65.21827841	      9.96111783	    -13.70038651	     -3.26359677	      0.98710519	     -2.39085154	     -9.68642620	     -1.99809908	      1.51636832	      5.02390482	     19.92704320	      0.00295923	     -0.00654696	     -0.00502401	     -0.63147503	    -10.65397051	     -2.37889861	      4.48490106
      0.32083333	      1.04666051	     -1.78706087	     -4.03319280	     -0.44838939	      1.02953538	      0.29600714	     15.35110000	      2.17430595	     -1.68526694	    -64.67149239	     10.82309684	    -12.83640112	     -3.31303247	      0.22354662	     -3.06701594	     -9.58233189	     -1.84301302	      1.29541715	      5.23109625	     19.95974353	      0.00105648	     -0.00696398	     -0.00679721	     -0.65081452	    -10.83222510	     -1.73475753	      4.11809031
      0.32500000	      1.10830582	     -1.78728132	     -3.90927062	     -0.44354748	      1.03014385	      0.29593635	     15.85619240	      2.21198868	     -1.70567875	    -64.26518798	     10.88565011	    -12.82076942	     -3.31851929	     -0.01604052	     -3.05620943	     -9.59856256	     -1.90017167	      1.32991751	      5.27286213	     19.99247752	      0.00210907	     -0.00649827	     -0.00694972	     -0.60847309	    -11.00521407	     -1.74165992	      4.10947719
      0.32916667	      1.16105069	     -2.14942672	     -3.68418559	     -0.43732663	      1.03063183	      0.29538390	     16.11744058	      2.48634026	     -2.06789203	    -63.59146886	     11.49710159	    -12.46625367	     -3.38058822	     -0.76795894	     -3.41815203	     -9.54126889	     -1.67587218	      1.14097383	      5.26594852	     20.19742363	     -0.00015450	     -0.00675475	     -0.00685026	     -0.36324293	    -10.93935858	     -1.22066031	      3.91763566
      0.33333333	      1.22068382	     -2.14620933	     -3.56513528	     -0.43259117	      1.03113710	      0.29545753	     16.62117492	      2.53779093	     -2.07256265	    -63.14074758	     11.56900476	    -12.43328461	     -3.38524559	     -1.00014246	     -3.42608065	     -9.53984876	     -1.72713343	      1.16858307	      5.31374665	     20.24440360	      0.00084795	     -0.00635512	     -0.00707753	     -0.33497565	    -11.13333950	     -1.24444824	      3.89786897
      0.33750000	      1.31116777	     -2.60066498	     -3.31340838	     -0.42632995	      1.03161236	      0.29494653	     16.77288490	      2.92264116	     -2.44772262	    -62.33034200	     12.27288840	    -11.97117269	     -3.46459468	     -1.82575853	     -3.95035755	     -9.45128402	     -1.48379590	      0.94346524	      5.36614147	     20.48948538	     -0.00177432	     -0.00668714	     -0.00743599	     -0.10094713	    -11.09702205	     -0.62144618	      3.61152930
      0.34166667	      1.60402527	     -3.05718538	     -3.03705415	     -0.42091231	      1.03236021	      0.29486731	     16.75902196	      3.41396558	     -2.69657288	    -61.48214389	     12.75602870	    -11.49142048	     -3.78875931	     -2.59873710	     -4.64776879	     -9.30002527	     -1.39859498	      0.77135658	      5.63022346	     20.59740481	     -0.00308769	     -0.00684258	     -0.00941070	      0.00636729	    -11.46466824	     -0.07072932	      3.28030348
      0.34583333	      1.66112664	     -3.06176164	     -2.90034849	     -0.41584082	      1.03286081	      0.29488646	     17.14224255	      3.44831480	     -2.72416985	    -60.81245343	     12.87342893	    -11.50840566	     -3.84635713	     -2.89307311	     -4.67720521	     -9.31079469	     -1.42120659	      0.77636524	      5.66816006	     20.64748036	     -0.00245271	     -0.00637990	     -0.00975358	      0.07711474	    -11.54171330	     -0.08999757	      3.25636826
      0.35000000	      1.68025013	     -3.14866421	     -2.74272777	     -0.41036309	      1.03322296	      0.29472778	     17.49359781	      3.51858939	     -2.85820089	    -60.04973831	     13.10279794	    -11.52982279	     -3.90643790	     -3.30848935	     -4.74103600	     -9.31058152	     -1.34834575	      0.72659926	      5.64503874	     20.79049827	     -0.00277704	     -0.00614581	     -0.00945766	      0.23121555	    -11.52931259	      0.02480676	      3.20708627
      0.35416667	      2.10985654	     -3.84618863	     -2.42080625	     -0.40487862	      1.03393339	      0.29454724	     17.26172040	      4.22708680	     -3.26646689	    -59.05502314	     13.65643179	    -11.23844655	     -4.60385336	     -4.36906127	     -5.79552769	     -9.20221716	     -1.17744764	      0.45103739	      5.98459123	     20.95418116	     -0.00536240	     -0.00665974	     -0.01215918	      0.28886416	    -12.05688901	      0.91810673	      2.72981971
      0.35833333	      2.11598871	     -3.83886538	     -2.32187098	     -0.39963998	      1.03424212	      0.29447706	     17.64951416	      4.19896156	     -3.35283957	    -58.27461300	     13.78771930	    -11.33042282	     -4.66616588	     -4.66742713	     -5.76126332	     -9.24820792	     -1.17242119	      0.45243411	      5.97101907	     21.01285987	     -0.00497557	     -0.00629678	     -0.01203930	      0.42944231	    -12.05569015	      0.90794802	      2.74311298
      0.36250000	      2.10520270	     -3.87251442	     -2.17817580	     -0.39426815	      1.03445936	      0.29433835	     18.01359487	      4.21089471	     -3.47294819	    -57.44025068	     13.97537713	    -11.43097088	     -4.73454842	     -5.03062997	     -5.75525588	     -9.26759419	     -1.10697721	      0.42248115	      5.91706654	     21.14959247	     -0.00522081	     -0.00606331	     -0.01154927	      0.57389382	    -12.01317065	      0.96545608	      2.73268814
      0.36666667	      2.10458389	     -3.98548252	     -1.98585197	     -0.38881047	      1.03457437	      0.29412037	     18.33648973	      4.27309011	     -3.66122659	    -56.57616456	     14.20971904	    -11.55058914	     -4.84916126	     -5.47266578	     -5.82469206	     -9.29916116	     -0.99893365	      0.36237285	      5.85170492	     21.31462987	     -0.00595365	     -0.00610446	     -0.01065325	      0.71071320	    -11.99080953	      1.14899022	      2.67844434
      0.37083333	      2.12588815	     -4.02400433	     -1.90083611	     -0.38357742	      1.03482145	      0.29403023	     18.64818106	      4.28781207	     -3.80712413	    -55.65534898	     14.38297125	    -11.62880481	     -4.92666165	     -5.80817433	     -5.87693732	     -9.33361242	     -0.98116504	      0.33785534	      5.87687167	     21.39543288	     -0.00580436	     -0.00574368	     -0.01104629	      0.81592701	    -12.00070176	      1.19822409	      2.62405094
      0.37500000	      2.62591680	     -4.83890515	     -1.47395412	     -0.37808670	      1.03546234	      0.29377127	     18.20100837	      5.10807288	     -4.33035230	    -54.32161655	     14.67442474	    -11.97639957	     -5.99375684	     -6.92241238	     -7.15081287	     -9.26413387	     -0.80757860	      0.04566955	      6.27478680	     21.69312058	     -0.00853206	     -0.00631739	     -0.01424335	      0.88777572	    -12.58658584	      2.25817362	      2.00950501
      0.37916667	      2.60547139	     -4.79414785	     -1.41890763	     -0.37298477	      1.03555000	      0.29386278	     18.55570588	      5.04987992	     -4.39496056	    -53.38396109	     14.81440253	    -12.07700158	     -6.05975009	     -7.17335099	     -7.08986081	     -9.33049619	     -0.82127423	      0.05960079	      6.26941736	     21.71843371	     -0.00807286	     -0.00598293	     -0.01417798	      1.03744735	    -12.57283609	      2.19106619	      2.03899621
      0.38333333	      2.55558299	     -4.77865165	     -1.30209152	     -0.36770184	      1.03556843	      0.29376854	     18.87683376	      5.01013776	     -4.49188746	    -52.35498788	     14.98767518	    -12.23142102	     -6.14528445	     -7.48248916	     -7.03510458	     -9.37096183	     -0.76575946	      0.04447817	      6.20019321	     21.82879536	     -0.00829817	     -0.00573922	     -0.01367818	      1.19227907	    -12.50023640	      2.18438679	      2.05851922
      0.38750000	      2.51731248	     -4.78294634	     -1.21297684	     -0.36243828	      1.03553396	      0.29372081	     19.18664660	      4.97418975	     -4.63842807	    -51.31518735	     15.15272882	    -12.40187445	     -6.23644868	     -7.79597721	     -6.99302786	     -9.41626543	     -0.72022636	      0.02692166	      6.15857917	     21.93252569	     -0.00836679	     -0.00559682	     -0.01310257	      1.32356525	    -12.44794832	      2.20518598	      2.05576618
      0.39166667	      2.47636718	     -4.79339279	     -1.09664277	     -0.35716873	      1.03548838	      0.29361580	     19.46705697	      4.94278027	     -4.78926630	    -50.21879198	     15.31123084	    -12.59280959	     -6.34118711	     -8.11777478	     -6.97502246	     -9.45799015	     -0.66414993	      0.00610673	      6.10393662	     22.04840700	     -0.00862663	     -0.00540858	     -0.01267925	      1.45734433	    -12.40043398	      2.23998308	      2.03595921
      0.39583333	      2.90247048	     -5.50288631	     -0.66662871	     -0.35188611	      1.03596557	      0.29337731	     19.02843831	      5.68805040	     -5.22979329	    -48.65324002	     15.18556012	    -13.73842275	     -7.79248736	     -9.05668466	     -8.06837350	     -9.42292347	     -0.52882746	     -0.21530323	      6.40817401	     22.37031539	     -0.01068314	     -0.00585313	     -0.01493643	      1.56466791	    -12.91978019	      3.15443738	      1.52343224
      0.40000000	      2.83682590	     -5.42735395	     -0.64161011	     -0.34679840	      1.03577156	      0.29350285	     19.34250441	      5.59391781	     -5.28305951	    -47.54800734	     15.37323471	    -13.81191765	     -7.85683461	     -9.27913945	     -7.99279843	     -9.51355902	     -0.54206785	     -0.20748642	      6.41390887	     22.36877144	     -0.01045110	     -0.00560335	     -0.01508838	      1.69774008	    -12.86891163	      3.06291402	      1.55813499
